<svg width="43" height="43" viewBox="0 0 43 43" fill="none" xmlns="http://www.w3.org/2000/svg">
<path d="M3.5835 14.3084C3.77975 10.3484 4.36686 7.87945 6.12322 6.12309C7.87957 4.36674 10.3485 3.77963 14.3085 3.58337M39.4168 14.3084C39.2206 10.3484 38.6335 7.87945 36.8771 6.12309C35.1208 4.36674 32.6518 3.77963 28.6918 3.58337M28.6918 39.4167C32.6518 39.2205 35.1208 38.6333 36.8771 36.877C38.6335 35.1206 39.2206 32.6517 39.4168 28.6917M14.3085 39.4167C10.3485 39.2205 7.87957 38.6333 6.12322 36.877C4.36686 35.1206 3.77975 32.6517 3.5835 28.6917" stroke="#00280F" stroke-width="2.6875" stroke-linecap="round" stroke-linejoin="round"/>
<path d="M29.5891 16.0219C30.1572 17.053 30.4587 18.1884 30.4587 19.3485V24.5112C30.4587 26.5438 29.4985 28.5462 27.8348 29.9834C26.1711 31.4207 23.8532 32.2501 21.5003 32.2501M12.542 20.2071V24.5117C12.5411 26.7664 13.7132 28.9837 15.7688 30.462M25.9795 11.7869C23.922 10.7607 21.4769 10.4826 19.182 11.0138C16.8871 11.545 14.9305 12.8419 13.7425 14.6194M24.4862 20.5653V18.9759C24.504 17.8355 23.5308 16.8089 22.2082 16.5386M18.5146 21.2434V23.9735C18.5049 24.4762 18.6812 24.9694 19.0199 25.387C20.0771 26.6906 22.4423 26.8396 23.7219 25.6615" stroke="#00280F" stroke-width="2.6875" stroke-linecap="round" stroke-linejoin="round"/>
</svg>
